<svg xmlns="http://www.w3.org/2000/svg" width="800" height="1000" viewBox="0 0 800 1000" fill="none" aria-hidden="true">
  <rect width="800" height="1000" fill="#fcf9f5"/>
  <rect x="140" y="180" width="200" height="140" rx="20" fill="#f5f2ec" stroke="#00694c" stroke-width="1.5" opacity="0.35"/>
  <rect x="380" y="180" width="280" height="64" rx="14" fill="#e4e2f7" opacity="0.55"/>
  <rect x="380" y="268" width="132" height="52" rx="12" fill="#c8ebe0" opacity="0.6"/>
  <rect x="528" y="268" width="132" height="52" rx="12" fill="#f0e6c8" opacity="0.55"/>
  <rect x="140" y="360" width="128" height="128" rx="18" fill="#584fbc" opacity="0.12"/>
  <rect x="292" y="360" width="128" height="128" rx="18" fill="#00694c" opacity="0.1"/>
  <rect x="444" y="360" width="128" height="128" rx="18" fill="#584fbc" opacity="0.08"/>
  <rect x="596" y="360" width="64" height="128" rx="16" fill="#ebe7df"/>
  <rect x="140" y="528" width="520" height="200" rx="24" fill="#eeeae3" opacity="0.85"/>
  <rect x="180" y="568" width="120" height="120" rx="16" fill="#fcf9f5" opacity="0.9"/>
  <rect x="320" y="568" width="300" height="36" rx="8" fill="#00694c" opacity="0.08"/>
  <rect x="320" y="620" width="220" height="36" rx="8" fill="#584fbc" opacity="0.07"/>
  <rect x="320" y="672" width="160" height="36" rx="8" fill="#5c5d59" opacity="0.06"/>
</svg>
